<svg xmlns="http://www.w3.org/2000/svg" xmlns:xlink="http://www.w3.org/1999/xlink" contentStyleType="text/css" data-diagram-type="DESCRIPTION" height="652px" preserveAspectRatio="none" style="width:1545px;height:652px;background:#FFFFFF;" version="1.1" viewBox="0 0 1545 652" width="1545px" zoomAndPan="magnify"><title>Matrix Architecture Component Diagram</title><defs/><g><g class="title" data-source-line="3"><text fill="#000000" font-family="Verdana" font-size="22" font-weight="bold" lengthAdjust="spacing" textLength="504.1846" x="515.9077" y="35.4209">Matrix Architecture Component Diagram</text></g><!--cluster Matrix Ecosystem--><g class="cluster" data-entity="Matrix Ecosystem" data-source-line="13" data-uid="ent0002" id="cluster_Matrix Ecosystem"><path d="M13.5,57.6094 L154.2266,57.6094 A3.75,3.75 0 0 1 156.7266,60.1094 L163.7266,79.9063 L1535.5,79.9063 A2.5,2.5 0 0 1 1538,82.4063 L1538,643.2994 A2.5,2.5 0 0 1 1535.5,645.7994 L13.5,645.7994 A2.5,2.5 0 0 1 11,643.2994 L11,60.1094 A2.5,2.5 0 0 1 13.5,57.6094" fill="#FFFFFF" style="stroke:#000000;stroke-width:1;"/><line style="stroke:#000000;stroke-width:1;" x1="11" x2="163.7266" y1="79.9063" y2="79.9063"/><text fill="#000000" font-family="Verdana" font-size="14" font-weight="bold" lengthAdjust="spacing" textLength="139.7266" x="15" y="72.6045">Matrix Ecosystem</text></g><!--cluster Server Components--><g class="cluster" data-entity="Server Components" data-source-line="20" data-uid="ent0006" id="cluster_Server Components"><path d="M384.5,281.9094 L540.9561,281.9094 A3.75,3.75 0 0 1 543.4561,284.4094 L550.4561,304.2063 L1337.5,304.2063 A2.5,2.5 0 0 1 1340,306.7063 L1340,376.7094 A2.5,2.5 0 0 1 1337.5,379.2094 L384.5,379.2094 A2.5,2.5 0 0 1 382,376.7094 L382,284.4094 A2.5,2.5 0 0 1 384.5,281.9094" fill="#FFFFFF" style="stroke:#000000;stroke-width:1;"/><line style="stroke:#000000;stroke-width:1;" x1="382" x2="550.4561" y1="304.2063" y2="304.2063"/><text fill="#000000" font-family="Verdana" font-size="14" font-weight="bold" lengthAdjust="spacing" textLength="155.4561" x="386" y="296.9045">Server Components</text></g><!--cluster Data Layer--><g class="cluster" data-entity="Data Layer" data-source-line="28" data-uid="ent0011" id="cluster_Data Layer"><path d="M291.5,524.4994 L378.4756,524.4994 A3.75,3.75 0 0 1 380.9756,526.9994 L387.9756,546.7963 L982.5,546.7963 A2.5,2.5 0 0 1 985,549.2963 L985,619.2994 A2.5,2.5 0 0 1 982.5,621.7994 L291.5,621.7994 A2.5,2.5 0 0 1 289,619.2994 L289,526.9994 A2.5,2.5 0 0 1 291.5,524.4994" fill="#FFFFFF" style="stroke:#000000;stroke-width:1;"/><line style="stroke:#000000;stroke-width:1;" x1="289" x2="387.9756" y1="546.7963" y2="546.7963"/><text fill="#000000" font-family="Verdana" font-size="14" font-weight="bold" lengthAdjust="spacing" textLength="85.9756" x="293" y="539.4945">Data Layer</text></g><!--cluster Federated Network--><g class="cluster" data-entity="Federated Network" data-source-line="43" data-uid="ent0021" id="cluster_Federated Network"><path d="M37.5,524.4994 L191.1807,524.4994 A3.75,3.75 0 0 1 193.6807,526.9994 L200.6807,546.7963 L262.5,546.7963 A2.5,2.5 0 0 1 265,549.2963 L265,619.2994 A2.5,2.5 0 0 1 262.5,621.7994 L37.5,621.7994 A2.5,2.5 0 0 1 35,619.2994 L35,526.9994 A2.5,2.5 0 0 1 37.5,524.4994" fill="#FFFFFF" style="stroke:#000000;stroke-width:1;"/><line style="stroke:#000000;stroke-width:1;" x1="35" x2="200.6807" y1="546.7963" y2="546.7963"/><text fill="#000000" font-family="Verdana" font-size="14" font-weight="bold" lengthAdjust="spacing" textLength="152.6807" x="39" y="539.4945">Federated Network</text></g><!--cluster External Ecosystem--><g class="cluster" data-entity="External Ecosystem" data-source-line="48" data-uid="ent0023" id="cluster_External Ecosystem"><path d="M609.5,403.2094 L765.3203,403.2094 A3.75,3.75 0 0 1 767.8203,405.7094 L774.8203,425.5063 L1511.5,425.5063 A2.5,2.5 0 0 1 1514,428.0063 L1514,497.9994 A2.5,2.5 0 0 1 1511.5,500.4994 L609.5,500.4994 A2.5,2.5 0 0 1 607,497.9994 L607,405.7094 A2.5,2.5 0 0 1 609.5,403.2094" fill="#FFFFFF" style="stroke:#000000;stroke-width:1;"/><line style="stroke:#000000;stroke-width:1;" x1="607" x2="774.8203" y1="425.5063" y2="425.5063"/><text fill="#000000" font-family="Verdana" font-size="14" font-weight="bold" lengthAdjust="spacing" textLength="154.8203" x="611" y="418.2045">External Ecosystem</text></g><!--entity mobile_client--><g class="entity" data-entity="mobile_client" data-source-line="15" data-uid="ent0003" id="entity_mobile_client"><rect fill="#FFFFFF" height="46.2969" rx="2.5" ry="2.5" style="stroke:#000000;stroke-width:1;" width="291.6377" x="724.18" y="92.6094"/><rect fill="#FFFFFF" height="10" style="stroke:#000000;stroke-width:1;" width="15" x="995.8177" y="97.6094"/><rect fill="#FFFFFF" height="2" style="stroke:#000000;stroke-width:1;" width="4" x="993.8177" y="99.6094"/><rect fill="#FFFFFF" height="2" style="stroke:#000000;stroke-width:1;" width="4" x="993.8177" y="103.6094"/><text fill="#000000" font-family="Verdana" font-size="14" lengthAdjust="spacing" textLength="251.6377" x="739.18" y="125.6045">Mobile Client (Element iOS/Android)</text></g><!--entity desktop_client--><g class="entity" data-entity="desktop_client" data-source-line="16" data-uid="ent0004" id="entity_desktop_client"><rect fill="#FFFFFF" height="46.2969" rx="2.5" ry="2.5" style="stroke:#000000;stroke-width:1;" width="278.2393" x="410.88" y="92.6094"/><rect fill="#FFFFFF" height="10" style="stroke:#000000;stroke-width:1;" width="15" x="669.1193" y="97.6094"/><rect fill="#FFFFFF" height="2" style="stroke:#000000;stroke-width:1;" width="4" x="667.1193" y="99.6094"/><rect fill="#FFFFFF" height="2" style="stroke:#000000;stroke-width:1;" width="4" x="667.1193" y="103.6094"/><text fill="#000000" font-family="Verdana" font-size="14" lengthAdjust="spacing" textLength="238.2393" x="425.88" y="125.6045">Desktop Client (Element Desktop)</text></g><!--entity web_client--><g class="entity" data-entity="web_client" data-source-line="17" data-uid="ent0005" id="entity_web_client"><rect fill="#FFFFFF" height="46.2969" rx="2.5" ry="2.5" style="stroke:#000000;stroke-width:1;" width="225.4521" x="150.27" y="92.6094"/><rect fill="#FFFFFF" height="10" style="stroke:#000000;stroke-width:1;" width="15" x="355.7221" y="97.6094"/><rect fill="#FFFFFF" height="2" style="stroke:#000000;stroke-width:1;" width="4" x="353.7221" y="99.6094"/><rect fill="#FFFFFF" height="2" style="stroke:#000000;stroke-width:1;" width="4" x="353.7221" y="103.6094"/><text fill="#000000" font-family="Verdana" font-size="14" lengthAdjust="spacing" textLength="185.4521" x="165.27" y="125.6045">Web Client (Element Web)</text></g><!--entity cs_api--><g class="entity" data-entity="cs_api" data-source-line="35" data-uid="ent0015" id="entity_cs_api"><ellipse cx="550" cy="227.9094" fill="#FFFFFF" rx="8" ry="8" style="stroke:#000000;stroke-width:1;"/><text fill="#000000" font-family="Verdana" font-size="14" lengthAdjust="spacing" textLength="210" x="445" y="257.9045">Client&#8209;Server API (HTTP REST)</text></g><!--entity ss_api--><g class="entity" data-entity="ss_api" data-source-line="36" data-uid="ent0016" id="entity_ss_api"><ellipse cx="142" cy="461.3494" fill="#FFFFFF" rx="8" ry="8" style="stroke:#000000;stroke-width:1;"/><text fill="#000000" font-family="Verdana" font-size="14" lengthAdjust="spacing" textLength="214.1631" x="34.9185" y="491.3445">Server&#8209;Server API (Federation)</text></g><!--entity as_api--><g class="entity" data-entity="as_api" data-source-line="37" data-uid="ent0017" id="entity_as_api"><ellipse cx="1192" cy="227.9094" fill="#FFFFFF" rx="8" ry="8" style="stroke:#000000;stroke-width:1;"/><text fill="#000000" font-family="Verdana" font-size="14" lengthAdjust="spacing" textLength="161.0137" x="1111.4932" y="257.9045">Application Service API</text></g><!--entity id_api--><g class="entity" data-entity="id_api" data-source-line="38" data-uid="ent0018" id="entity_id_api"><ellipse cx="979" cy="227.9094" fill="#FFFFFF" rx="8" ry="8" style="stroke:#000000;stroke-width:1;"/><text fill="#000000" font-family="Verdana" font-size="14" lengthAdjust="spacing" textLength="136.4453" x="910.7773" y="257.9045">Identity Service API</text></g><!--entity media_api--><g class="entity" data-entity="media_api" data-source-line="39" data-uid="ent0019" id="entity_media_api"><ellipse cx="403" cy="461.3494" fill="#FFFFFF" rx="8" ry="8" style="stroke:#000000;stroke-width:1;"/><text fill="#000000" font-family="Verdana" font-size="14" lengthAdjust="spacing" textLength="207.3818" x="299.3091" y="491.3445">Media API (Upload/Download)</text></g><!--entity push_api--><g class="entity" data-entity="push_api" data-source-line="40" data-uid="ent0020" id="entity_push_api"><ellipse cx="785" cy="227.9094" fill="#FFFFFF" rx="8" ry="8" style="stroke:#000000;stroke-width:1;"/><text fill="#000000" font-family="Verdana" font-size="14" lengthAdjust="spacing" textLength="144.8604" x="712.5698" y="257.9045">Push Notification API</text></g><!--entity home_server--><g class="entity" data-entity="home_server" data-source-line="21" data-uid="ent0007" id="entity_home_server"><rect fill="#FFFFFF" height="46.2969" rx="2.5" ry="2.5" style="stroke:#000000;stroke-width:1;" width="303.0811" x="398.46" y="316.9094"/><rect fill="#FFFFFF" height="10" style="stroke:#000000;stroke-width:1;" width="15" x="681.5411" y="321.9094"/><rect fill="#FFFFFF" height="2" style="stroke:#000000;stroke-width:1;" width="4" x="679.5411" y="323.9094"/><rect fill="#FFFFFF" height="2" style="stroke:#000000;stroke-width:1;" width="4" x="679.5411" y="327.9094"/><text fill="#000000" font-family="Verdana" font-size="14" lengthAdjust="spacing" textLength="263.0811" x="413.46" y="349.9045">Home Server (Synapse/Dendrite/etc.)</text></g><!--entity app_service--><g class="entity" data-entity="app_service" data-source-line="22" data-uid="ent0008" id="entity_app_service"><rect fill="#FFFFFF" height="46.2969" rx="2.5" ry="2.5" style="stroke:#000000;stroke-width:1;" width="233.6689" x="1090.17" y="316.9094"/><rect fill="#FFFFFF" height="10" style="stroke:#000000;stroke-width:1;" width="15" x="1303.8389" y="321.9094"/><rect fill="#FFFFFF" height="2" style="stroke:#000000;stroke-width:1;" width="4" x="1301.8389" y="323.9094"/><rect fill="#FFFFFF" height="2" style="stroke:#000000;stroke-width:1;" width="4" x="1301.8389" y="327.9094"/><text fill="#000000" font-family="Verdana" font-size="14" lengthAdjust="spacing" textLength="193.6689" x="1105.17" y="349.9045">Application Service / Bridge</text></g><!--entity identity_server--><g class="entity" data-entity="identity_server" data-source-line="23" data-uid="ent0009" id="entity_identity_server"><rect fill="#FFFFFF" height="46.2969" rx="2.5" ry="2.5" style="stroke:#000000;stroke-width:1;" width="144.0156" x="910.99" y="316.9094"/><rect fill="#FFFFFF" height="10" style="stroke:#000000;stroke-width:1;" width="15" x="1035.0056" y="321.9094"/><rect fill="#FFFFFF" height="2" style="stroke:#000000;stroke-width:1;" width="4" x="1033.0056" y="323.9094"/><rect fill="#FFFFFF" height="2" style="stroke:#000000;stroke-width:1;" width="4" x="1033.0056" y="327.9094"/><text fill="#000000" font-family="Verdana" font-size="14" lengthAdjust="spacing" textLength="104.0156" x="925.99" y="349.9045">Identity Server</text></g><!--entity push_gateway--><g class="entity" data-entity="push_gateway" data-source-line="24" data-uid="ent0010" id="entity_push_gateway"><rect fill="#FFFFFF" height="46.2969" rx="2.5" ry="2.5" style="stroke:#000000;stroke-width:1;" width="139.7773" x="736.11" y="316.9094"/><rect fill="#FFFFFF" height="10" style="stroke:#000000;stroke-width:1;" width="15" x="855.8873" y="321.9094"/><rect fill="#FFFFFF" height="2" style="stroke:#000000;stroke-width:1;" width="4" x="853.8873" y="323.9094"/><rect fill="#FFFFFF" height="2" style="stroke:#000000;stroke-width:1;" width="4" x="853.8873" y="327.9094"/><text fill="#000000" font-family="Verdana" font-size="14" lengthAdjust="spacing" textLength="99.7773" x="751.11" y="349.9045">Push Gateway</text></g><!--entity event_db--><g class="entity" data-entity="event_db" data-source-line="29" data-uid="ent0012" id="entity_event_db"><rect fill="#FFFFFF" height="46.2969" rx="2.5" ry="2.5" style="stroke:#000000;stroke-width:1;" width="214.501" x="501.75" y="559.4994"/><rect fill="#FFFFFF" height="10" style="stroke:#000000;stroke-width:1;" width="15" x="696.251" y="564.4994"/><rect fill="#FFFFFF" height="2" style="stroke:#000000;stroke-width:1;" width="4" x="694.251" y="566.4994"/><rect fill="#FFFFFF" height="2" style="stroke:#000000;stroke-width:1;" width="4" x="694.251" y="570.4994"/><text fill="#000000" font-family="Verdana" font-size="14" lengthAdjust="spacing" textLength="174.501" x="516.75" y="592.4945">Event &amp; State Store (DB)</text></g><!--entity media_repo--><g class="entity" data-entity="media_repo" data-source-line="30" data-uid="ent0013" id="entity_media_repo"><rect fill="#FFFFFF" height="46.2969" rx="2.5" ry="2.5" style="stroke:#000000;stroke-width:1;" width="161.5703" x="305.21" y="559.4994"/><rect fill="#FFFFFF" height="10" style="stroke:#000000;stroke-width:1;" width="15" x="446.7803" y="564.4994"/><rect fill="#FFFFFF" height="2" style="stroke:#000000;stroke-width:1;" width="4" x="444.7803" y="566.4994"/><rect fill="#FFFFFF" height="2" style="stroke:#000000;stroke-width:1;" width="4" x="444.7803" y="570.4994"/><text fill="#000000" font-family="Verdana" font-size="14" lengthAdjust="spacing" textLength="121.5703" x="320.21" y="592.4945">Media Repository</text></g><!--entity cache--><g class="entity" data-entity="cache" data-source-line="31" data-uid="ent0014" id="entity_cache"><rect fill="#FFFFFF" height="46.2969" rx="2.5" ry="2.5" style="stroke:#000000;stroke-width:1;" width="217.0303" x="751.48" y="559.4994"/><rect fill="#FFFFFF" height="10" style="stroke:#000000;stroke-width:1;" width="15" x="948.5103" y="564.4994"/><rect fill="#FFFFFF" height="2" style="stroke:#000000;stroke-width:1;" width="4" x="946.5103" y="566.4994"/><rect fill="#FFFFFF" height="2" style="stroke:#000000;stroke-width:1;" width="4" x="946.5103" y="570.4994"/><text fill="#000000" font-family="Verdana" font-size="14" lengthAdjust="spacing" textLength="177.0303" x="766.48" y="592.4945">Cache (Redis/In&#8209;Memory)</text></g><!--entity remote_server--><g class="entity" data-entity="remote_server" data-source-line="44" data-uid="ent0022" id="entity_remote_server"><rect fill="#FFFFFF" height="46.2969" rx="2.5" ry="2.5" style="stroke:#000000;stroke-width:1;" width="198.0947" x="50.95" y="559.4994"/><rect fill="#FFFFFF" height="10" style="stroke:#000000;stroke-width:1;" width="15" x="229.0447" y="564.4994"/><rect fill="#FFFFFF" height="2" style="stroke:#000000;stroke-width:1;" width="4" x="227.0447" y="566.4994"/><rect fill="#FFFFFF" height="2" style="stroke:#000000;stroke-width:1;" width="4" x="227.0447" y="570.4994"/><text fill="#000000" font-family="Verdana" font-size="14" lengthAdjust="spacing" textLength="158.0947" x="65.95" y="592.4945">Remote Home Servers</text></g><!--entity external_networks--><g class="entity" data-entity="external_networks" data-source-line="49" data-uid="ent0024" id="entity_external_networks"><rect fill="#FFFFFF" height="46.2969" rx="2.5" ry="2.5" style="stroke:#000000;stroke-width:1;" width="342.2373" x="1155.88" y="438.2094"/><rect fill="#FFFFFF" height="10" style="stroke:#000000;stroke-width:1;" width="15" x="1478.1173" y="443.2094"/><rect fill="#FFFFFF" height="2" style="stroke:#000000;stroke-width:1;" width="4" x="1476.1173" y="445.2094"/><rect fill="#FFFFFF" height="2" style="stroke:#000000;stroke-width:1;" width="4" x="1476.1173" y="449.2094"/><text fill="#000000" font-family="Verdana" font-size="14" lengthAdjust="spacing" textLength="302.2373" x="1170.88" y="471.2045">Other Chat Networks (IRC/Slack/XMPP/etc.)</text></g><!--entity push_providers--><g class="entity" data-entity="push_providers" data-source-line="50" data-uid="ent0025" id="entity_push_providers"><rect fill="#FFFFFF" height="46.2969" rx="2.5" ry="2.5" style="stroke:#000000;stroke-width:1;" width="229.2051" x="623.4" y="438.2094"/><rect fill="#FFFFFF" height="10" style="stroke:#000000;stroke-width:1;" width="15" x="832.6051" y="443.2094"/><rect fill="#FFFFFF" height="2" style="stroke:#000000;stroke-width:1;" width="4" x="830.6051" y="445.2094"/><rect fill="#FFFFFF" height="2" style="stroke:#000000;stroke-width:1;" width="4" x="830.6051" y="449.2094"/><text fill="#000000" font-family="Verdana" font-size="14" lengthAdjust="spacing" textLength="189.2051" x="638.4" y="471.2045">Push Providers (FCM/APNs)</text></g><!--entity external_idp--><g class="entity" data-entity="external_idp" data-source-line="51" data-uid="ent0026" id="entity_external_idp"><rect fill="#FFFFFF" height="46.2969" rx="2.5" ry="2.5" style="stroke:#000000;stroke-width:1;" width="233.1973" x="887.4" y="438.2094"/><rect fill="#FFFFFF" height="10" style="stroke:#000000;stroke-width:1;" width="15" x="1100.5973" y="443.2094"/><rect fill="#FFFFFF" height="2" style="stroke:#000000;stroke-width:1;" width="4" x="1098.5973" y="445.2094"/><rect fill="#FFFFFF" height="2" style="stroke:#000000;stroke-width:1;" width="4" x="1098.5973" y="449.2094"/><text fill="#000000" font-family="Verdana" font-size="14" lengthAdjust="spacing" textLength="193.1973" x="902.4" y="471.2045">3rd&#8209;Party Identity Providers</text></g><!--link mobile_client to cs_api--><g class="link" data-entity-1="mobile_client" data-entity-2="cs_api" data-source-line="55" data-uid="lnk27" id="link_mobile_client_cs_api"><path d="M804.47,139.3194 C724.02,167.0094 603.3661,208.5465 568.3661,220.5865" fill="none" id="mobile_client-to-cs_api" style="stroke:#000000;stroke-width:1;"/><path d="M564.5718,230.8353 A9,9 0 0 0 559.0697 214.8408" fill="none" style="stroke:#000000;stroke-width:1.5;"/></g><!--link desktop_client to cs_api--><g class="link" data-entity-1="desktop_client" data-entity-2="cs_api" data-source-line="56" data-uid="lnk28" id="link_desktop_client_cs_api"><path d="M550,139.3194 C550,164.1194 550,192.6194 550,209.0494" fill="none" id="desktop_client-to-cs_api" style="stroke:#000000;stroke-width:1;"/><path d="M558.4572,215.9712 A9,9 0 0 0 541.5428 215.9712" fill="none" style="stroke:#000000;stroke-width:1.5;"/></g><!--link web_client to cs_api--><g class="link" data-entity-1="web_client" data-entity-2="cs_api" data-source-line="57" data-uid="lnk29" id="link_web_client_cs_api"><path d="M321.77,139.3194 C393.27,166.7594 499.1646,207.3946 531.7946,219.9246" fill="none" id="web_client-to-cs_api" style="stroke:#000000;stroke-width:1;"/><path d="M541.2882,214.5108 A9,9 0 0 0 535.2246 230.301" fill="none" style="stroke:#000000;stroke-width:1.5;"/></g><!--link cs_api to home_server--><g class="link" data-entity-1="cs_api" data-entity-2="home_server" data-source-line="58" data-uid="lnk30" id="link_cs_api_home_server"><path d="M550,236.8294 C550,253.3094 550,291.7894 550,316.5594" fill="none" id="cs_api-home_server" style="stroke:#000000;stroke-width:1;"/></g><!--link home_server to event_db--><g class="link" data-entity-1="home_server" data-entity-2="event_db" data-source-line="61" data-uid="lnk31" id="link_home_server_event_db"><path d="M552.07,363.6394 C555.44,396.1694 563.25,457.8494 578,508.4994 C583.09,525.9794 586.9366,535.8297 593.5766,550.0397" fill="none" id="home_server-to-event_db" style="stroke:#000000;stroke-width:1;"/><path d="M604.1689,552.7304 A9,9 0 0 0 588.8449 559.8909" fill="none" style="stroke:#000000;stroke-width:1.5;"/></g><!--link home_server to cache--><g class="link" data-entity-1="home_server" data-entity-2="cache" data-source-line="62" data-uid="lnk32" id="link_home_server_cache"><path d="M561.94,363.5794 C566.72,373.1594 572.02,384.5594 576,395.2094 C594.26,444.1094 566.52,475.5394 607,508.4994 C617.96,517.4294 720.37,512.7294 734,516.4994 C767.11,525.6694 793.0162,538.9764 817.5062,553.9364" fill="none" id="home_server-to-cache" style="stroke:#000000;stroke-width:1;"/><path d="M827.8219,550.3275 A9,9 0 0 0 819.0044 564.7619" fill="none" style="stroke:#000000;stroke-width:1.5;"/></g><!--link home_server to media_api--><g class="link" data-entity-1="home_server" data-entity-2="media_api" data-source-line="63" data-uid="lnk33" id="link_home_server_media_api"><path d="M522.35,363.4994 C488.58,390.8994 441.085,429.4482 419.655,446.8382" fill="none" id="home_server-to-media_api" style="stroke:#000000;stroke-width:1;"/><path d="M419.6092,457.7668 A9,9 0 0 0 408.9512 444.6327" fill="none" style="stroke:#000000;stroke-width:1.5;"/></g><!--link media_api to media_repo--><g class="link" data-entity-1="media_api" data-entity-2="media_repo" data-source-line="64" data-uid="lnk34" id="link_media_api_media_repo"><path d="M401.88,470.1794 C399.34,488.0094 393.05,532.1994 389.19,559.2794" fill="none" id="media_api-media_repo" style="stroke:#000000;stroke-width:1;"/></g><!--link home_server to ss_api--><g class="link" data-entity-1="home_server" data-entity-2="ss_api" data-source-line="67" data-uid="lnk35" id="link_home_server_ss_api"><path d="M398.29,363.5894 C357.68,371.5994 314.2,381.9994 275,395.2094 C226.02,411.7094 180.5687,437.3543 159.5987,449.8043" fill="none" id="home_server-to-ss_api" style="stroke:#000000;stroke-width:1;"/><path d="M157.9643,460.6101 A9,9 0 0 0 149.3293 446.0658" fill="none" style="stroke:#000000;stroke-width:1.5;"/></g><!--link ss_api to remote_server--><g class="link" data-entity-1="ss_api" data-entity-2="remote_server" data-source-line="68" data-uid="lnk36" id="link_ss_api_remote_server"><path d="M142.52,470.1794 C143.72,488.0094 146.68,532.1994 148.5,559.2794" fill="none" id="ss_api-remote_server" style="stroke:#000000;stroke-width:1;"/></g><!--link home_server to as_api--><g class="link" data-entity-1="home_server" data-entity-2="as_api" data-source-line="71" data-uid="lnk37" id="link_home_server_as_api"><path d="M596.48,316.4894 C629.75,301.4994 676.08,282.9694 719,273.9094 C873.12,241.3894 917.02,278.8194 1073,256.9094 C1114.83,251.0394 1153.9389,240.1998 1173.5589,234.4098" fill="none" id="home_server-to-as_api" style="stroke:#000000;stroke-width:1;"/><path d="M1177.804,224.3392 A9,9 0 0 0 1182.5914 240.562" fill="none" style="stroke:#000000;stroke-width:1.5;"/></g><!--link as_api to app_service--><g class="link" data-entity-1="as_api" data-entity-2="app_service" data-source-line="72" data-uid="lnk38" id="link_as_api_app_service"><path d="M1193.08,236.8294 C1195.32,253.3094 1200.56,291.7894 1203.94,316.5594" fill="none" id="as_api-app_service" style="stroke:#000000;stroke-width:1;"/></g><!--link app_service to external_networks--><g class="link" data-entity-1="app_service" data-entity-2="external_networks" data-source-line="73" data-uid="lnk39" id="link_app_service_external_networks"><path d="M1229.57,363.4994 C1251.03,384.8294 1276.0191,409.6682 1297.4391,430.9682" fill="none" id="app_service-to-external_networks" style="stroke:#000000;stroke-width:1;"/><path d="M1308.3106,429.852 A9,9 0 0 0 1296.3839 441.8458" fill="none" style="stroke:#000000;stroke-width:1.5;"/></g><!--link home_server to id_api--><g class="link" data-entity-1="home_server" data-entity-2="id_api" data-source-line="76" data-uid="lnk40" id="link_home_server_id_api"><path d="M598.45,316.4294 C631.66,301.9194 677.11,283.9694 719,273.9094 C790.25,256.7994 811.09,270.9994 883,256.9094 C915.71,250.4994 943.9215,241.2531 960.6915,235.3831" fill="none" id="home_server-to-id_api" style="stroke:#000000;stroke-width:1;"/><path d="M964.4306,225.114 A9,9 0 0 0 970.0187 241.0787" fill="none" style="stroke:#000000;stroke-width:1.5;"/></g><!--link id_api to identity_server--><g class="link" data-entity-1="id_api" data-entity-2="identity_server" data-source-line="77" data-uid="lnk41" id="link_id_api_identity_server"><path d="M979.29,236.8294 C979.89,253.3094 981.28,291.7894 982.18,316.5594" fill="none" id="id_api-identity_server" style="stroke:#000000;stroke-width:1;"/></g><!--link identity_server to external_idp--><g class="link" data-entity-1="identity_server" data-entity-2="external_idp" data-source-line="78" data-uid="lnk42" id="link_identity_server_external_idp"><path d="M986.95,363.4994 C990.7,384.8294 994.5861,406.8708 998.3361,428.1708" fill="none" id="identity_server-to-external_idp" style="stroke:#000000;stroke-width:1;"/><path d="M1007.8654,433.5214 A9,9 0 0 0 991.2071 436.4542" fill="none" style="stroke:#000000;stroke-width:1.5;"/></g><!--link home_server to push_api--><g class="link" data-entity-1="home_server" data-entity-2="push_api" data-source-line="81" data-uid="lnk43" id="link_home_server_push_api"><path d="M598.23,316.4494 C655.63,289.5494 738.2658,250.8146 767.0158,237.3346" fill="none" id="home_server-to-push_api" style="stroke:#000000;stroke-width:1;"/><path d="M769.6927,226.7388 A9,9 0 0 0 776.8732 242.0535" fill="none" style="stroke:#000000;stroke-width:1.5;"/></g><!--link push_api to push_gateway--><g class="link" data-entity-1="push_api" data-entity-2="push_gateway" data-source-line="82" data-uid="lnk44" id="link_push_api_push_gateway"><path d="M786.51,236.8294 C789.65,253.3094 796.99,291.7894 801.71,316.5594" fill="none" id="push_api-push_gateway" style="stroke:#000000;stroke-width:1;"/></g><!--link push_gateway to push_providers--><g class="link" data-entity-1="push_gateway" data-entity-2="push_providers" data-source-line="83" data-uid="lnk45" id="link_push_gateway_push_providers"><path d="M793.21,363.4994 C781.05,384.8294 767.8217,408.0314 755.6817,429.3314" fill="none" id="push_gateway-to-push_providers" style="stroke:#000000;stroke-width:1;"/><path d="M759.6018,439.5329 A9,9 0 0 0 744.9066 431.1573" fill="none" style="stroke:#000000;stroke-width:1.5;"/></g><!--SRC=[VLN1Zjis4BtxAwPxQEo3rqcyQTBsvDYRhe7rnh2tI84YC6Y9Qn4hYG99ssiK0VOJcZ_ejoK_qY57eYZBpaMGE3DlPlZUZ7uo2Syu52aJUQTZX4avp9XHuWb6Aag4uP7PAWvZcHKovxc1YM0RnR9EvmNS9nnY-eI85TPH0m928ZR9j-UlAT_n5A8gL0FBOn2vuOf5HiXSmrwOHEGkXh8YQg6aaP5CBnq-2wiG6c8U8PHYgT0y_WsscYjjKsJRN4JCS0Tf0OL2h5H6B8L4PXpzTbp1JZ2NBKe5mlJBqz5y-dlWfK7n8YMuc1cCa8WbCKurl2gm1nvZIxOZw98j0EwvhXLF3o1pX67R9v4AfWvWVKI4LwQtKG9CWuYn9c78OXFOI5PGAHRTHtInxnZ17gI2jHBnXjUNkw5ITEyIHf1n9CYs8xKmqYR5ftKsXaL9Lh62K2RPPkkSYLGJAhPRNX_Ldqcy3GVt_VdVgtV3gxV3Dx-yVVFwvN3uwxVd_svV3L_tRrzTlVp-_FMoqobOzCWs72vACLr7KX-quTa5_DC1U07zVX_6ZWIuPGUyAZn0mzypkHQemTBKlKwvBHB4n-LWbCTAYhZtsTvLvlnMnACDd73zQ6JHYYpFAIgcZo3i4r-tGl2CtFTyNRdwefV4R5YqRxQq-M7Hr2sckK7PLA7TvI5dXUQ32SUEKDm3Rg9BocZbjIBwAN0KqBya-c40xntdBWBriIfrGH7JIaMKxdEeh0RqVAiJ-0D5lcS7vrNWmMf31-ZofMvwOgVWPCkrnVTwlREN-3CiZHsWfHKST2VlgK5kZQjuJQup9y-5boTHQmzNLhFaD4Qb8i82Z_LWckDYcQ4QrO408sjjLZkrA-Q1uKtX_EcoucuFBeXe15ZwyOJkpVtz71RNo_lUXSFJArQ8Ce3yZW8- -76d21r6dE8BevmZ2nqRD8LU8Wwyw89SsZ-BLB9uC97xtBvGRhghsjznUYUDUAYAg60TkTRHNrFP1u_XZfkzL8_7tBOSFCKBMWU1ghKZWzP4hRA0bEid92N7TR9qUq0V9_FserM1sJwwpJjEcAaAmGquNOm7onIZ1t_DvlDWX7W9jCfBtq3jSoLtE0kuMhiVnhF1Q7wdUxNqYyfA4KCL8_Dpff0apvP7QEOIST5ijzmfaSnpNlxigE76ue9-Z7JskxNgcXkgRQzNKjj6B-LvOvNuicxgNw6HxR4EOZnyCB6dpDNydRA5wlJlLNt1c9yfhnwq7vJdfqytkcygyKo2KyDwFfCVNzR8r5p0mLTzWor5dgcdjHFE5-Et1BrKnRGN_T59koWhtJFrX7-87zJYLmlurwgUerzA-DaChsVlI-T_]--></g></svg>