<svg xmlns="http://www.w3.org/2000/svg" xmlns:xlink="http://www.w3.org/1999/xlink" contentStyleType="text/css" data-diagram-type="SEQUENCE" height="1057px" preserveAspectRatio="none" style="width:1451px;height:1057px;background:#FFFFFF;" version="1.1" viewBox="0 0 1451 1057" width="1451px" zoomAndPan="magnify"><title>Matrix Media Message Flow</title><defs/><g><text fill="#000000" font-family="Verdana" font-size="22" font-weight="bold" lengthAdjust="spacing" textLength="344.2871" x="557.3853" y="35.4209">Matrix Media Message Flow</text><rect fill="#FFFFFF" height="162.7969" style="stroke:#000000;stroke-width:1;" width="567.3799" x="15" y="145.9063"/><rect fill="#FFFFFF" height="133.6641" style="stroke:#000000;stroke-width:1;" width="769.2451" x="107.7236" y="322.7031"/><rect fill="#FFFFFF" height="75.3984" style="stroke:#000000;stroke-width:1;" width="607.7227" x="697.208" y="470.3672"/><rect fill="#FFFFFF" height="399.8594" style="stroke:#000000;stroke-width:1;" width="1380.3906" x="64.667" y="559.7656"/><rect fill="#FFFFFF" height="223.0625" style="stroke:#000000;stroke-width:1;" width="917.3848" x="262.6904" y="700.4297"/><rect fill="#FFFFFF" height="147.6641" style="stroke:none;stroke-width:1;" width="917.3848" x="262.6904" y="775.8281"/><g><title>Alice</title><rect fill="#000000" fill-opacity="0.00000" height="847.7188" width="8" x="40.8335" y="128.9063"/><line style="stroke:#000000;stroke-width:1;stroke-dasharray:5,5;" x1="44" x2="44" y1="128.9063" y2="976.625"/></g><g><title>Bob</title><rect fill="#000000" fill-opacity="0.00000" height="847.7188" width="8" x="87.1953" y="128.9063"/><line style="stroke:#000000;stroke-width:1;stroke-dasharray:5,5;" x1="90.667" x2="90.667" y1="128.9063" y2="976.625"/></g><g><title>Client</title><rect fill="#000000" fill-opacity="0.00000" height="847.7188" width="8" x="150.9888" y="128.9063"/><line style="stroke:#000000;stroke-width:1;stroke-dasharray:5,5;" x1="154.7236" x2="154.7236" y1="128.9063" y2="976.625"/></g><g><title>Alice HomeServer</title><rect fill="#000000" fill-opacity="0.00000" height="847.7188" width="8" x="348.376" y="128.9063"/><line style="stroke:#000000;stroke-width:1;stroke-dasharray:5,5;" x1="351.6904" x2="351.6904" y1="128.9063" y2="976.625"/></g><g><title>Media Repo A</title><rect fill="#000000" fill-opacity="0.00000" height="847.7188" width="8" x="503.2207" y="128.9063"/><line style="stroke:#000000;stroke-width:1;stroke-dasharray:5,5;" x1="507.0615" x2="507.0615" y1="128.9063" y2="976.625"/></g><g><title>Database A</title><rect fill="#000000" fill-opacity="0.00000" height="847.7188" width="8" x="635.7939" y="128.9063"/><line style="stroke:#000000;stroke-width:1;stroke-dasharray:5,5;" x1="639.3799" x2="639.3799" y1="128.9063" y2="976.625"/></g><g><title>Federation Queue</title><rect fill="#000000" fill-opacity="0.00000" height="847.7188" width="8" x="783.0884" y="128.9063"/><line style="stroke:#000000;stroke-width:1;stroke-dasharray:5,5;" x1="786.208" x2="786.208" y1="128.9063" y2="976.625"/></g><g><title>Bob HomeServer</title><rect fill="#000000" fill-opacity="0.00000" height="847.7188" width="8" x="949.3491" y="128.9063"/><line style="stroke:#000000;stroke-width:1;stroke-dasharray:5,5;" x1="952.9688" x2="952.9688" y1="128.9063" y2="976.625"/></g><g><title>Media Repo B</title><rect fill="#000000" fill-opacity="0.00000" height="847.7188" width="8" x="1100.9023" y="128.9063"/><line style="stroke:#000000;stroke-width:1;stroke-dasharray:5,5;" x1="1104.7295" x2="1104.7295" y1="128.9063" y2="976.625"/></g><g><title>Database B</title><rect fill="#000000" fill-opacity="0.00000" height="847.7188" width="8" x="1233.5029" y="128.9063"/><line style="stroke:#000000;stroke-width:1;stroke-dasharray:5,5;" x1="1237.0752" x2="1237.0752" y1="128.9063" y2="976.625"/></g><g><title>Push Provider</title><rect fill="#000000" fill-opacity="0.00000" height="847.7188" width="8" x="1365.9941" y="128.9063"/><line style="stroke:#000000;stroke-width:1;stroke-dasharray:5,5;" x1="1369.9307" x2="1369.9307" y1="128.9063" y2="976.625"/></g><g class="participant participant-head" data-participant="Alice"><text fill="#000000" font-family="Verdana" font-size="14" lengthAdjust="spacing" textLength="33.667" x="25" y="125.6045">Alice</text><ellipse cx="44.8335" cy="60.6094" fill="#FFFFFF" rx="8" ry="8" style="stroke:#000000;stroke-width:1;"/><path d="M44.8335,68.6094 L44.8335,95.6094 M31.8335,76.6094 L57.8335,76.6094 M44.8335,95.6094 L31.8335,110.6094 M44.8335,95.6094 L57.8335,110.6094" fill="none" style="stroke:#000000;stroke-width:1;"/></g><g class="participant participant-tail" data-participant="Alice"><text fill="#000000" font-family="Verdana" font-size="14" lengthAdjust="spacing" textLength="33.667" x="25" y="988.6201">Alice</text><ellipse cx="44.8335" cy="1000.9219" fill="#FFFFFF" rx="8" ry="8" style="stroke:#000000;stroke-width:1;"/><path d="M44.8335,1008.9219 L44.8335,1035.9219 M31.8335,1016.9219 L57.8335,1016.9219 M44.8335,1035.9219 L31.8335,1050.9219 M44.8335,1035.9219 L57.8335,1050.9219" fill="none" style="stroke:#000000;stroke-width:1;"/></g><g class="participant participant-head" data-participant="Bob"><text fill="#000000" font-family="Verdana" font-size="14" lengthAdjust="spacing" textLength="27.0566" x="74.667" y="125.6045">Bob</text><ellipse cx="91.1953" cy="60.6094" fill="#FFFFFF" rx="8" ry="8" style="stroke:#000000;stroke-width:1;"/><path d="M91.1953,68.6094 L91.1953,95.6094 M78.1953,76.6094 L104.1953,76.6094 M91.1953,95.6094 L78.1953,110.6094 M91.1953,95.6094 L104.1953,110.6094" fill="none" style="stroke:#000000;stroke-width:1;"/></g><g class="participant participant-tail" data-participant="Bob"><text fill="#000000" font-family="Verdana" font-size="14" lengthAdjust="spacing" textLength="27.0566" x="74.667" y="988.6201">Bob</text><ellipse cx="91.1953" cy="1000.9219" fill="#FFFFFF" rx="8" ry="8" style="stroke:#000000;stroke-width:1;"/><path d="M91.1953,1008.9219 L91.1953,1035.9219 M78.1953,1016.9219 L104.1953,1016.9219 M91.1953,1035.9219 L78.1953,1050.9219 M91.1953,1035.9219 L104.1953,1050.9219" fill="none" style="stroke:#000000;stroke-width:1;"/></g><g class="participant participant-head" data-participant="Client"><rect fill="#FFFFFF" height="30.2969" rx="2.5" ry="2.5" style="stroke:#000000;stroke-width:1;" width="54.5303" x="127.7236" y="97.6094"/><text fill="#000000" font-family="Verdana" font-size="14" lengthAdjust="spacing" textLength="40.5303" x="134.7236" y="117.6045">Client</text></g><g class="participant participant-tail" data-participant="Client"><rect fill="#FFFFFF" height="30.2969" rx="2.5" ry="2.5" style="stroke:#000000;stroke-width:1;" width="54.5303" x="127.7236" y="975.625"/><text fill="#000000" font-family="Verdana" font-size="14" lengthAdjust="spacing" textLength="40.5303" x="134.7236" y="995.6201">Client</text></g><g class="participant participant-head" data-participant="HS_A"><rect fill="#FFFFFF" height="30.2969" rx="2.5" ry="2.5" style="stroke:#000000;stroke-width:1;" width="139.3711" x="282.6904" y="97.6094"/><text fill="#000000" font-family="Verdana" font-size="14" lengthAdjust="spacing" textLength="125.3711" x="289.6904" y="117.6045">Alice HomeServer</text></g><g class="participant participant-tail" data-participant="HS_A"><rect fill="#FFFFFF" height="30.2969" rx="2.5" ry="2.5" style="stroke:#000000;stroke-width:1;" width="139.3711" x="282.6904" y="975.625"/><text fill="#000000" font-family="Verdana" font-size="14" lengthAdjust="spacing" textLength="125.3711" x="289.6904" y="995.6201">Alice HomeServer</text></g><g class="participant participant-head" data-participant="MediaA"><rect fill="#FFFFFF" height="30.2969" rx="2.5" ry="2.5" style="stroke:#000000;stroke-width:1;" width="110.3184" x="452.0615" y="97.6094"/><text fill="#000000" font-family="Verdana" font-size="14" lengthAdjust="spacing" textLength="96.3184" x="459.0615" y="117.6045">Media Repo A</text></g><g class="participant participant-tail" data-participant="MediaA"><rect fill="#FFFFFF" height="30.2969" rx="2.5" ry="2.5" style="stroke:#000000;stroke-width:1;" width="110.3184" x="452.0615" y="975.625"/><text fill="#000000" font-family="Verdana" font-size="14" lengthAdjust="spacing" textLength="96.3184" x="459.0615" y="995.6201">Media Repo A</text></g><g class="participant participant-head" data-participant="DB_A"><rect fill="#FFFFFF" height="30.2969" rx="2.5" ry="2.5" style="stroke:#000000;stroke-width:1;" width="94.8281" x="592.3799" y="97.6094"/><text fill="#000000" font-family="Verdana" font-size="14" lengthAdjust="spacing" textLength="80.8281" x="599.3799" y="117.6045">Database A</text></g><g class="participant participant-tail" data-participant="DB_A"><rect fill="#FFFFFF" height="30.2969" rx="2.5" ry="2.5" style="stroke:#000000;stroke-width:1;" width="94.8281" x="592.3799" y="975.625"/><text fill="#000000" font-family="Verdana" font-size="14" lengthAdjust="spacing" textLength="80.8281" x="599.3799" y="995.6201">Database A</text></g><g class="participant participant-head" data-participant="Federation"><rect fill="#FFFFFF" height="30.2969" rx="2.5" ry="2.5" style="stroke:#000000;stroke-width:1;" width="139.7607" x="717.208" y="97.6094"/><text fill="#000000" font-family="Verdana" font-size="14" lengthAdjust="spacing" textLength="125.7607" x="724.208" y="117.6045">Federation Queue</text></g><g class="participant participant-tail" data-participant="Federation"><rect fill="#FFFFFF" height="30.2969" rx="2.5" ry="2.5" style="stroke:#000000;stroke-width:1;" width="139.7607" x="717.208" y="975.625"/><text fill="#000000" font-family="Verdana" font-size="14" lengthAdjust="spacing" textLength="125.7607" x="724.208" y="995.6201">Federation Queue</text></g><g class="participant participant-head" data-participant="HS_B"><rect fill="#FFFFFF" height="30.2969" rx="2.5" ry="2.5" style="stroke:#000000;stroke-width:1;" width="132.7607" x="886.9688" y="97.6094"/><text fill="#000000" font-family="Verdana" font-size="14" lengthAdjust="spacing" textLength="118.7607" x="893.9688" y="117.6045">Bob HomeServer</text></g><g class="participant participant-tail" data-participant="HS_B"><rect fill="#FFFFFF" height="30.2969" rx="2.5" ry="2.5" style="stroke:#000000;stroke-width:1;" width="132.7607" x="886.9688" y="975.625"/><text fill="#000000" font-family="Verdana" font-size="14" lengthAdjust="spacing" textLength="118.7607" x="893.9688" y="995.6201">Bob HomeServer</text></g><g class="participant participant-head" data-participant="MediaB"><rect fill="#FFFFFF" height="30.2969" rx="2.5" ry="2.5" style="stroke:#000000;stroke-width:1;" width="110.3457" x="1049.7295" y="97.6094"/><text fill="#000000" font-family="Verdana" font-size="14" lengthAdjust="spacing" textLength="96.3457" x="1056.7295" y="117.6045">Media Repo B</text></g><g class="participant participant-tail" data-participant="MediaB"><rect fill="#FFFFFF" height="30.2969" rx="2.5" ry="2.5" style="stroke:#000000;stroke-width:1;" width="110.3457" x="1049.7295" y="975.625"/><text fill="#000000" font-family="Verdana" font-size="14" lengthAdjust="spacing" textLength="96.3457" x="1056.7295" y="995.6201">Media Repo B</text></g><g class="participant participant-head" data-participant="DB_B"><rect fill="#FFFFFF" height="30.2969" rx="2.5" ry="2.5" style="stroke:#000000;stroke-width:1;" width="94.8555" x="1190.0752" y="97.6094"/><text fill="#000000" font-family="Verdana" font-size="14" lengthAdjust="spacing" textLength="80.8555" x="1197.0752" y="117.6045">Database B</text></g><g class="participant participant-tail" data-participant="DB_B"><rect fill="#FFFFFF" height="30.2969" rx="2.5" ry="2.5" style="stroke:#000000;stroke-width:1;" width="94.8555" x="1190.0752" y="975.625"/><text fill="#000000" font-family="Verdana" font-size="14" lengthAdjust="spacing" textLength="80.8555" x="1197.0752" y="995.6201">Database B</text></g><g class="participant participant-head" data-participant="PushProvider"><rect fill="#FFFFFF" height="30.2969" rx="2.5" ry="2.5" style="stroke:#000000;stroke-width:1;" width="110.127" x="1314.9307" y="97.6094"/><text fill="#000000" font-family="Verdana" font-size="14" lengthAdjust="spacing" textLength="96.127" x="1321.9307" y="117.6045">Push Provider</text></g><g class="participant participant-tail" data-participant="PushProvider"><rect fill="#FFFFFF" height="30.2969" rx="2.5" ry="2.5" style="stroke:#000000;stroke-width:1;" width="110.127" x="1314.9307" y="975.625"/><text fill="#000000" font-family="Verdana" font-size="14" lengthAdjust="spacing" textLength="96.127" x="1321.9307" y="995.6201">Push Provider</text></g><path d="M15,145.9063 L111.3271,145.9063 L111.3271,153.0391 L101.3271,163.0391 L15,163.0391 L15,145.9063" fill="#FFFFFF" style="stroke:#000000;stroke-width:1;"/><rect fill="none" height="162.7969" style="stroke:#000000;stroke-width:1;" width="567.3799" x="15" y="145.9063"/><text fill="#000000" font-family="Verdana" font-size="13" font-weight="bold" lengthAdjust="spacing" textLength="51.3271" x="30" y="158.9731">Upload</text><g class="message" data-participant-1="Alice" data-participant-2="Client"><polygon fill="#000000" points="142.9888,180.1719,152.9888,184.1719,142.9888,188.1719,146.9888,184.1719" style="stroke:#000000;stroke-width:1;"/><line style="stroke:#000000;stroke-width:1;" x1="44.8335" x2="148.9888" y1="184.1719" y2="184.1719"/><text fill="#000000" font-family="Verdana" font-size="13" font-weight="bold" lengthAdjust="spacing" textLength="9.0454" x="51.8335" y="179.106">1</text><text fill="#000000" font-family="Verdana" font-size="13" lengthAdjust="spacing" textLength="71.9253" x="64.8789" y="179.106">Choose file</text></g><g class="message" data-participant-1="Client" data-participant-2="HS_A"><polygon fill="#000000" points="340.376,209.3047,350.376,213.3047,340.376,217.3047,344.376,213.3047" style="stroke:#000000;stroke-width:1;"/><line style="stroke:#000000;stroke-width:1;" x1="154.9888" x2="346.376" y1="213.3047" y2="213.3047"/><text fill="#000000" font-family="Verdana" font-size="13" font-weight="bold" lengthAdjust="spacing" textLength="9.0454" x="161.9888" y="208.2388">2</text><text fill="#000000" font-family="Verdana" font-size="13" lengthAdjust="spacing" textLength="119.7803" x="175.0342" y="208.2388">Upload file chunks</text></g><g class="message" data-participant-1="HS_A" data-participant-2="MediaA"><polygon fill="#000000" points="495.2207,238.4375,505.2207,242.4375,495.2207,246.4375,499.2207,242.4375" style="stroke:#000000;stroke-width:1;"/><line style="stroke:#000000;stroke-width:1;" x1="352.376" x2="501.2207" y1="242.4375" y2="242.4375"/><text fill="#000000" font-family="Verdana" font-size="13" font-weight="bold" lengthAdjust="spacing" textLength="9.0454" x="359.376" y="237.3716">3</text><text fill="#000000" font-family="Verdana" font-size="13" lengthAdjust="spacing" textLength="84.9443" x="372.4214" y="237.3716">Store chunks</text></g><g class="message" data-participant-1="MediaA" data-participant-2="HS_A"><polygon fill="#000000" points="363.376,267.5703,353.376,271.5703,363.376,275.5703,359.376,271.5703" style="stroke:#000000;stroke-width:1;"/><line style="stroke:#000000;stroke-width:1;stroke-dasharray:2,2;" x1="357.376" x2="506.2207" y1="271.5703" y2="271.5703"/><text fill="#000000" font-family="Verdana" font-size="13" font-weight="bold" lengthAdjust="spacing" textLength="9.0454" x="369.376" y="266.5044">4</text><text fill="#000000" font-family="Verdana" font-size="13" lengthAdjust="spacing" textLength="103.7969" x="382.4214" y="266.5044">Return MXC URI</text></g><g class="message" data-participant-1="HS_A" data-participant-2="Client"><polygon fill="#000000" points="165.9888,296.7031,155.9888,300.7031,165.9888,304.7031,161.9888,300.7031" style="stroke:#000000;stroke-width:1;"/><line style="stroke:#000000;stroke-width:1;stroke-dasharray:2,2;" x1="159.9888" x2="351.376" y1="300.7031" y2="300.7031"/><text fill="#000000" font-family="Verdana" font-size="13" font-weight="bold" lengthAdjust="spacing" textLength="9.0454" x="171.9888" y="295.6372">5</text><text fill="#000000" font-family="Verdana" font-size="13" lengthAdjust="spacing" textLength="55.7134" x="185.0342" y="295.6372">MXC URI</text></g><path d="M107.7236,322.7031 L258.1138,322.7031 L258.1138,329.8359 L248.1138,339.8359 L107.7236,339.8359 L107.7236,322.7031" fill="#FFFFFF" style="stroke:#000000;stroke-width:1;"/><rect fill="none" height="133.6641" style="stroke:#000000;stroke-width:1;" width="769.2451" x="107.7236" y="322.7031"/><text fill="#000000" font-family="Verdana" font-size="13" font-weight="bold" lengthAdjust="spacing" textLength="105.3901" x="122.7236" y="335.77">Send Message</text><g class="message" data-participant-1="Client" data-participant-2="HS_A"><polygon fill="#000000" points="340.376,356.9688,350.376,360.9688,340.376,364.9688,344.376,360.9688" style="stroke:#000000;stroke-width:1;"/><line style="stroke:#000000;stroke-width:1;" x1="154.9888" x2="346.376" y1="360.9688" y2="360.9688"/><text fill="#000000" font-family="Verdana" font-size="13" font-weight="bold" lengthAdjust="spacing" textLength="9.0454" x="161.9888" y="355.9028">6</text><text fill="#000000" font-family="Verdana" font-size="13" lengthAdjust="spacing" textLength="160.3418" x="175.0342" y="355.9028">Send message with MXC</text></g><g class="message" data-participant-1="HS_A" data-participant-2="DB_A"><polygon fill="#000000" points="627.7939,386.1016,637.7939,390.1016,627.7939,394.1016,631.7939,390.1016" style="stroke:#000000;stroke-width:1;"/><line style="stroke:#000000;stroke-width:1;" x1="352.376" x2="633.7939" y1="390.1016" y2="390.1016"/><text fill="#000000" font-family="Verdana" font-size="13" font-weight="bold" lengthAdjust="spacing" textLength="9.0454" x="359.376" y="385.0356">7</text><text fill="#000000" font-family="Verdana" font-size="13" lengthAdjust="spacing" textLength="84.5952" x="372.4214" y="385.0356">Persist event</text></g><g class="message" data-participant-1="HS_A" data-participant-2="Federation"><polygon fill="#000000" points="775.0884,415.2344,785.0884,419.2344,775.0884,423.2344,779.0884,419.2344" style="stroke:#000000;stroke-width:1;"/><line style="stroke:#000000;stroke-width:1;" x1="352.376" x2="781.0884" y1="419.2344" y2="419.2344"/><text fill="#000000" font-family="Verdana" font-size="13" font-weight="bold" lengthAdjust="spacing" textLength="9.0454" x="359.376" y="414.1685">8</text><text fill="#000000" font-family="Verdana" font-size="13" lengthAdjust="spacing" textLength="101.8735" x="372.4214" y="414.1685">Replicate event</text></g><g class="message" data-participant-1="HS_A" data-participant-2="Client"><polygon fill="#000000" points="165.9888,444.3672,155.9888,448.3672,165.9888,452.3672,161.9888,448.3672" style="stroke:#000000;stroke-width:1;"/><line style="stroke:#000000;stroke-width:1;stroke-dasharray:2,2;" x1="159.9888" x2="351.376" y1="448.3672" y2="448.3672"/><text fill="#000000" font-family="Verdana" font-size="13" font-weight="bold" lengthAdjust="spacing" textLength="9.0454" x="171.9888" y="443.3013">9</text><text fill="#000000" font-family="Verdana" font-size="13" lengthAdjust="spacing" textLength="23.5688" x="185.0342" y="443.3013">Ack</text></g><path d="M697.208,470.3672 L822.0679,470.3672 L822.0679,477.5 L812.0679,487.5 L697.208,487.5 L697.208,470.3672" fill="#FFFFFF" style="stroke:#000000;stroke-width:1;"/><rect fill="none" height="75.3984" style="stroke:#000000;stroke-width:1;" width="607.7227" x="697.208" y="470.3672"/><text fill="#000000" font-family="Verdana" font-size="13" font-weight="bold" lengthAdjust="spacing" textLength="79.8599" x="712.208" y="483.4341">Federation</text><g class="message" data-participant-1="Federation" data-participant-2="HS_B"><polygon fill="#000000" points="941.3491,504.6328,951.3491,508.6328,941.3491,512.6328,945.3491,508.6328" style="stroke:#000000;stroke-width:1;"/><line style="stroke:#000000;stroke-width:1;" x1="787.0884" x2="947.3491" y1="508.6328" y2="508.6328"/><text fill="#000000" font-family="Verdana" font-size="13" font-weight="bold" lengthAdjust="spacing" textLength="18.0908" x="794.0884" y="503.5669">10</text><text fill="#000000" font-family="Verdana" font-size="13" lengthAdjust="spacing" textLength="87.4263" x="816.1792" y="503.5669">Deliver event</text></g><g class="message" data-participant-1="HS_B" data-participant-2="DB_B"><polygon fill="#000000" points="1225.5029,533.7656,1235.5029,537.7656,1225.5029,541.7656,1229.5029,537.7656" style="stroke:#000000;stroke-width:1;"/><line style="stroke:#000000;stroke-width:1;" x1="953.3491" x2="1231.5029" y1="537.7656" y2="537.7656"/><text fill="#000000" font-family="Verdana" font-size="13" font-weight="bold" lengthAdjust="spacing" textLength="18.0908" x="960.3491" y="532.6997">11</text><text fill="#000000" font-family="Verdana" font-size="13" lengthAdjust="spacing" textLength="84.5952" x="982.4399" y="532.6997">Persist event</text></g><path d="M64.667,559.7656 L170.3633,559.7656 L170.3633,566.8984 L160.3633,576.8984 L64.667,576.8984 L64.667,559.7656" fill="#FFFFFF" style="stroke:#000000;stroke-width:1;"/><rect fill="none" height="399.8594" style="stroke:#000000;stroke-width:1;" width="1380.3906" x="64.667" y="559.7656"/><text fill="#000000" font-family="Verdana" font-size="13" font-weight="bold" lengthAdjust="spacing" textLength="60.6963" x="79.667" y="572.8325">Delivery</text><g class="message" data-participant-1="HS_B" data-participant-2="PushProvider"><polygon fill="#000000" points="1357.9941,594.0313,1367.9941,598.0313,1357.9941,602.0313,1361.9941,598.0313" style="stroke:#000000;stroke-width:1;"/><line style="stroke:#000000;stroke-width:1;" x1="953.3491" x2="1363.9941" y1="598.0313" y2="598.0313"/><text fill="#000000" font-family="Verdana" font-size="13" font-weight="bold" lengthAdjust="spacing" textLength="18.0908" x="960.3491" y="592.9653">12</text><text fill="#000000" font-family="Verdana" font-size="13" lengthAdjust="spacing" textLength="93.647" x="982.4399" y="592.9653">Push message</text></g><g class="message" data-participant-1="PushProvider" data-participant-2="Bob"><polygon fill="#000000" points="102.1953,623.1641,92.1953,627.1641,102.1953,631.1641,98.1953,627.1641" style="stroke:#000000;stroke-width:1;"/><line style="stroke:#000000;stroke-width:1;stroke-dasharray:2,2;" x1="96.1953" x2="1368.9941" y1="627.1641" y2="627.1641"/><text fill="#000000" font-family="Verdana" font-size="13" font-weight="bold" lengthAdjust="spacing" textLength="18.0908" x="108.1953" y="622.0981">13</text><text fill="#000000" font-family="Verdana" font-size="13" lengthAdjust="spacing" textLength="38.6572" x="130.2861" y="622.0981">Notify</text></g><g class="message" data-participant-1="Bob" data-participant-2="HS_B"><polygon fill="#000000" points="941.3491,652.2969,951.3491,656.2969,941.3491,660.2969,945.3491,656.2969" style="stroke:#000000;stroke-width:1;"/><line style="stroke:#000000;stroke-width:1;" x1="91.1953" x2="947.3491" y1="656.2969" y2="656.2969"/><text fill="#000000" font-family="Verdana" font-size="13" font-weight="bold" lengthAdjust="spacing" textLength="18.0908" x="98.1953" y="651.231">14</text><text fill="#000000" font-family="Verdana" font-size="13" lengthAdjust="spacing" textLength="63.3242" x="120.2861" y="651.231">Open app</text></g><g class="message" data-participant-1="HS_B" data-participant-2="DB_B"><polygon fill="#000000" points="1225.5029,681.4297,1235.5029,685.4297,1225.5029,689.4297,1229.5029,685.4297" style="stroke:#000000;stroke-width:1;"/><line style="stroke:#000000;stroke-width:1;" x1="953.3491" x2="1231.5029" y1="685.4297" y2="685.4297"/><text fill="#000000" font-family="Verdana" font-size="13" font-weight="bold" lengthAdjust="spacing" textLength="18.0908" x="960.3491" y="680.3638">15</text><text fill="#000000" font-family="Verdana" font-size="13" lengthAdjust="spacing" textLength="64.3271" x="982.4399" y="680.3638">Get event</text></g><path d="M262.6904,700.4297 L327.1333,700.4297 L327.1333,707.5625 L317.1333,717.5625 L262.6904,717.5625 L262.6904,700.4297" fill="#FFFFFF" style="stroke:#000000;stroke-width:1;"/><rect fill="none" height="223.0625" style="stroke:#000000;stroke-width:1;" width="917.3848" x="262.6904" y="700.4297"/><text fill="#000000" font-family="Verdana" font-size="13" font-weight="bold" lengthAdjust="spacing" textLength="19.4429" x="277.6904" y="713.4966">alt</text><text fill="#000000" font-family="Verdana" font-size="11" font-weight="bold" lengthAdjust="spacing" textLength="94.9878" x="342.1333" y="712.6401">[Media cached]</text><g class="message" data-participant-1="HS_B" data-participant-2="MediaB"><polygon fill="#000000" points="1092.9023,734.6953,1102.9023,738.6953,1092.9023,742.6953,1096.9023,738.6953" style="stroke:#000000;stroke-width:1;"/><line style="stroke:#000000;stroke-width:1;" x1="953.3491" x2="1098.9023" y1="738.6953" y2="738.6953"/><text fill="#000000" font-family="Verdana" font-size="13" font-weight="bold" lengthAdjust="spacing" textLength="18.0908" x="960.3491" y="733.6294">16</text><text fill="#000000" font-family="Verdana" font-size="13" lengthAdjust="spacing" textLength="89.356" x="982.4399" y="733.6294">Access media</text></g><g class="message" data-participant-1="MediaB" data-participant-2="HS_B"><polygon fill="#000000" points="964.3491,763.8281,954.3491,767.8281,964.3491,771.8281,960.3491,767.8281" style="stroke:#000000;stroke-width:1;"/><line style="stroke:#000000;stroke-width:1;stroke-dasharray:2,2;" x1="958.3491" x2="1103.9023" y1="767.8281" y2="767.8281"/><text fill="#000000" font-family="Verdana" font-size="13" font-weight="bold" lengthAdjust="spacing" textLength="18.0908" x="970.3491" y="762.7622">17</text><text fill="#000000" font-family="Verdana" font-size="13" lengthAdjust="spacing" textLength="31.04" x="992.4399" y="762.7622">Data</text></g><line style="stroke:#000000;stroke-width:1;stroke-dasharray:2,2;" x1="262.6904" x2="1180.0752" y1="776.8281" y2="776.8281"/><g class="message" data-participant-1="HS_B" data-participant-2="HS_A"><polygon fill="#000000" points="363.376,794.9609,353.376,798.9609,363.376,802.9609,359.376,798.9609" style="stroke:#000000;stroke-width:1;"/><line style="stroke:#000000;stroke-width:1;" x1="357.376" x2="952.3491" y1="798.9609" y2="798.9609"/><text fill="#000000" font-family="Verdana" font-size="13" font-weight="bold" lengthAdjust="spacing" textLength="18.0908" x="369.376" y="793.895">18</text><text fill="#000000" font-family="Verdana" font-size="13" lengthAdjust="spacing" textLength="109.2432" x="391.4668" y="793.895">Download media</text></g><g class="message" data-participant-1="HS_A" data-participant-2="MediaA"><polygon fill="#000000" points="495.2207,824.0938,505.2207,828.0938,495.2207,832.0938,499.2207,828.0938" style="stroke:#000000;stroke-width:1;"/><line style="stroke:#000000;stroke-width:1;" x1="352.376" x2="501.2207" y1="828.0938" y2="828.0938"/><text fill="#000000" font-family="Verdana" font-size="13" font-weight="bold" lengthAdjust="spacing" textLength="18.0908" x="359.376" y="823.0278">19</text><text fill="#000000" font-family="Verdana" font-size="13" lengthAdjust="spacing" textLength="77.873" x="381.4668" y="823.0278">Read media</text></g><g class="message" data-participant-1="MediaA" data-participant-2="HS_A"><polygon fill="#000000" points="363.376,853.2266,353.376,857.2266,363.376,861.2266,359.376,857.2266" style="stroke:#000000;stroke-width:1;"/><line style="stroke:#000000;stroke-width:1;stroke-dasharray:2,2;" x1="357.376" x2="506.2207" y1="857.2266" y2="857.2266"/><text fill="#000000" font-family="Verdana" font-size="13" font-weight="bold" lengthAdjust="spacing" textLength="18.0908" x="369.376" y="852.1606">20</text><text fill="#000000" font-family="Verdana" font-size="13" lengthAdjust="spacing" textLength="31.04" x="391.4668" y="852.1606">Data</text></g><g class="message" data-participant-1="HS_A" data-participant-2="HS_B"><polygon fill="#000000" points="941.3491,882.3594,951.3491,886.3594,941.3491,890.3594,945.3491,886.3594" style="stroke:#000000;stroke-width:1;"/><line style="stroke:#000000;stroke-width:1;stroke-dasharray:2,2;" x1="352.376" x2="947.3491" y1="886.3594" y2="886.3594"/><text fill="#000000" font-family="Verdana" font-size="13" font-weight="bold" lengthAdjust="spacing" textLength="18.0908" x="359.376" y="881.2935">21</text><text fill="#000000" font-family="Verdana" font-size="13" lengthAdjust="spacing" textLength="31.04" x="381.4668" y="881.2935">Data</text></g><g class="message" data-participant-1="HS_B" data-participant-2="MediaB"><polygon fill="#000000" points="1092.9023,911.4922,1102.9023,915.4922,1092.9023,919.4922,1096.9023,915.4922" style="stroke:#000000;stroke-width:1;"/><line style="stroke:#000000;stroke-width:1;" x1="953.3491" x2="1098.9023" y1="915.4922" y2="915.4922"/><text fill="#000000" font-family="Verdana" font-size="13" font-weight="bold" lengthAdjust="spacing" textLength="18.0908" x="960.3491" y="910.4263">22</text><text fill="#000000" font-family="Verdana" font-size="13" lengthAdjust="spacing" textLength="79.2695" x="982.4399" y="910.4263">Store media</text></g><g class="message" data-participant-1="HS_B" data-participant-2="Bob"><polygon fill="#000000" points="102.1953,947.625,92.1953,951.625,102.1953,955.625,98.1953,951.625" style="stroke:#000000;stroke-width:1;"/><line style="stroke:#000000;stroke-width:1;stroke-dasharray:2,2;" x1="96.1953" x2="952.3491" y1="951.625" y2="951.625"/><text fill="#000000" font-family="Verdana" font-size="13" font-weight="bold" lengthAdjust="spacing" textLength="18.0908" x="108.1953" y="946.5591">23</text><text fill="#000000" font-family="Verdana" font-size="13" lengthAdjust="spacing" textLength="182.0381" x="130.2861" y="946.5591">Deliver message and media</text></g><!--SRC=[VPB1Zjem48RlVeefbvvuWHmg4T1sAvMM4Y7rLfbas5XhxDHsW7txZkq4x0GrXoYs__dpUUR_v5ey8tII2yLuxxJgpqSqZ3dX9CAMEoDkiCL6S7fRozyGNgI-ClOPAd7kf3W9RC3YtnvLZN0LhjMz0uNMqVvHtz22qy0lMZImarovm_Oxs0_b-0tG66qiQ0LM4uL5Sq5Z6UErqmPMKjGuV9Vwo3fkdAX5HnwmbWALoxPUgpyhu1OMeGvUoR4AXejC5kuIXV5QU-mqh7BHfXoyDjpn8xSu5RnWWuOxGUXUbYn_zTZZOafM1XdTulzSvPIhd76LETT4iEjjkpFw8eWd2Fq6Z3iBnjwCxZiuT5BpXW4ziLlBBqDB2rYtMfFnIKWCWhZl5Rx3nL0Rpg5kU_LkWooqdqInlmLKDBPCC3H-UJVQe-kDWktlDHpstnAJ16OyHDMCx1LzZrby2XW4vo6iFf3U9MFquorWHraJrW5UV9JIyySuFIM5lEOEPxe4SrM_fuYF-Y1FqX4Xom8sA0Lb83Sj1xXo2fTu3uKVMKqwzYAinWO4MPOApqr1BE27Tk8KVNmmxsW_EwHKTzqJgg-OjelB8RPGyxh5cAUqA6RQjwSc6aAYvLqq17xvQ0bbEfoYj3ZpYhFTwAiAySkzfk7RuqmoYz_zTzb49oZFRXEJ_N3tmtdenkwE0nw3oDL8vFN_0000]--></g></svg>